<svg width="170" height="83" viewBox="0 0 170 83" fill="none" xmlns="http://www.w3.org/2000/svg">
<path d="M72.4152 28.7629C72.6322 27.9584 73.1742 27.2799 73.9113 26.8897L86.6076 20.169L86.1403 19.286L86.6076 20.169C87.1926 19.8594 87.9147 20.0081 88.3282 20.5234C88.8284 21.1468 88.6935 22.0642 88.0347 22.5192L85.8948 23.9972C82.207 26.5443 83.4652 32.2732 87.879 33.032L92.9566 33.9049C94.6963 34.204 95.8006 35.9321 95.3409 37.6361L88.8278 61.7804C88.3963 63.3801 86.749 64.3295 85.1486 63.9009L67.3308 59.1298C65.7303 58.7013 64.7827 57.0571 65.2142 55.4574L72.4152 28.7629Z" fill="#06038D" stroke="#080661" stroke-width="2"/>
<mask id="path-2-inside-1_8067_9646" fill="white">
<path fill-rule="evenodd" clip-rule="evenodd" d="M75.4827 27.707C74.6689 28.4638 74.2065 29.525 74.2065 30.6363V62.7536C74.2065 64.9627 75.9974 66.7536 78.2065 66.7536H100.207C102.416 66.7536 104.207 64.9627 104.207 62.7536V30.6363C104.207 29.525 103.744 28.4638 102.93 27.707L91.9304 17.4782C90.3951 16.0506 88.018 16.0506 86.4827 17.4782L75.4827 27.707ZM89.2065 30.8861C90.8634 30.8861 92.2065 29.5479 92.2065 27.8971C92.2065 26.2464 90.8634 24.9082 89.2065 24.9082C87.5497 24.9082 86.2065 26.2464 86.2065 27.8971C86.2065 29.5479 87.5497 30.8861 89.2065 30.8861Z"/>
</mask>
<path fill-rule="evenodd" clip-rule="evenodd" d="M75.4827 27.707C74.6689 28.4638 74.2065 29.525 74.2065 30.6363V62.7536C74.2065 64.9627 75.9974 66.7536 78.2065 66.7536H100.207C102.416 66.7536 104.207 64.9627 104.207 62.7536V30.6363C104.207 29.525 103.744 28.4638 102.93 27.707L91.9304 17.4782C90.3951 16.0506 88.018 16.0506 86.4827 17.4782L75.4827 27.707ZM89.2065 30.8861C90.8634 30.8861 92.2065 29.5479 92.2065 27.8971C92.2065 26.2464 90.8634 24.9082 89.2065 24.9082C87.5497 24.9082 86.2065 26.2464 86.2065 27.8971C86.2065 29.5479 87.5497 30.8861 89.2065 30.8861Z" fill="#C6007E"/>
<path d="M75.4827 27.707L76.8446 29.1717L75.4827 27.707ZM102.93 27.707L104.292 26.2424L104.292 26.2424L102.93 27.707ZM91.9304 17.4782L93.2924 16.0136V16.0136L91.9304 17.4782ZM86.4827 17.4782L85.1207 16.0136L86.4827 17.4782ZM76.2065 30.6363C76.2065 30.0806 76.4377 29.55 76.8446 29.1717L74.1207 26.2424C72.9 27.3775 72.2065 28.9693 72.2065 30.6363H76.2065ZM76.2065 62.7536V30.6363H72.2065V62.7536H76.2065ZM78.2065 64.7536C77.102 64.7536 76.2065 63.8581 76.2065 62.7536H72.2065C72.2065 66.0673 74.8928 68.7536 78.2065 68.7536V64.7536ZM100.207 64.7536H78.2065V68.7536H100.207V64.7536ZM102.207 62.7536C102.207 63.8581 101.311 64.7536 100.207 64.7536V68.7536C103.52 68.7536 106.207 66.0673 106.207 62.7536H102.207ZM102.207 30.6363V62.7536H106.207V30.6363H102.207ZM101.568 29.1717C101.975 29.55 102.207 30.0806 102.207 30.6363H106.207C106.207 28.9693 105.513 27.3775 104.292 26.2424L101.568 29.1717ZM90.5685 18.9428L101.568 29.1717L104.292 26.2424L93.2924 16.0136L90.5685 18.9428ZM87.8446 18.9428C88.6123 18.229 89.8008 18.229 90.5685 18.9428L93.2924 16.0136C90.9894 13.8721 87.4237 13.8721 85.1207 16.0136L87.8446 18.9428ZM76.8446 29.1717L87.8446 18.9428L85.1207 16.0136L74.1207 26.2424L76.8446 29.1717ZM90.2065 27.8971C90.2065 28.4363 89.7658 28.8861 89.2065 28.8861V32.8861C91.961 32.8861 94.2065 30.6594 94.2065 27.8971H90.2065ZM89.2065 26.9082C89.7658 26.9082 90.2065 27.3579 90.2065 27.8971H94.2065C94.2065 25.1349 91.961 22.9082 89.2065 22.9082V26.9082ZM88.2065 27.8971C88.2065 27.3579 88.6473 26.9082 89.2065 26.9082V22.9082C86.4521 22.9082 84.2065 25.1349 84.2065 27.8971H88.2065ZM89.2065 28.8861C88.6473 28.8861 88.2065 28.4363 88.2065 27.8971H84.2065C84.2065 30.6594 86.4521 32.8861 89.2065 32.8861V28.8861Z" fill="#A6006A" mask="url(#path-2-inside-1_8067_9646)"/>
<path opacity="0.5" d="M78.2065 50.1434C78.2065 49.5609 78.4605 49.0073 78.9021 48.6274L96.9021 33.1392C98.1987 32.0236 100.207 32.9448 100.207 34.6553V60.7683C100.207 61.8729 99.3111 62.7683 98.2065 62.7683H80.2065C79.102 62.7683 78.2065 61.8729 78.2065 60.7683V50.1434Z" fill="#E380BF"/>
<g filter="url(#filter0_d_8067_9646)">
<path d="M86.2065 42.3443C86.2065 43.7144 85.0907 44.8314 83.7065 44.8314C82.3223 44.8314 81.2065 43.7144 81.2065 42.3443C81.2065 40.9742 82.3223 39.8572 83.7065 39.8572C85.0907 39.8572 86.2065 40.9742 86.2065 42.3443Z" stroke="#F2F2F2" stroke-width="2"/>
</g>
<g filter="url(#filter1_d_8067_9646)">
<path d="M97.2065 52.3074C97.2065 53.6775 96.0907 54.7945 94.7065 54.7945C93.3223 54.7945 92.2065 53.6775 92.2065 52.3074C92.2065 50.9373 93.3223 49.8203 94.7065 49.8203C96.0907 49.8203 97.2065 50.9373 97.2065 52.3074Z" stroke="#F2F2F2" stroke-width="2"/>
</g>
<g filter="url(#filter2_d_8067_9646)">
<rect width="2.99529" height="20.3764" rx="1.49764" transform="matrix(0.758551 0.651614 -0.654381 0.756165 94.8066 38.8567)" fill="#F2F2F2"/>
</g>
<path d="M89.6516 26.9291C96.2066 17.4359 90.4423 10.6515 84.5744 11.3038C78.7065 11.9562 75.2066 19.9267 77.2065 23.912" stroke="#080661" stroke-width="3" stroke-linecap="round" stroke-linejoin="round"/>
<path d="M127.276 13.5652L117.167 15.9537L120.145 6.03728L127.276 13.5652Z" stroke="#C6007E"/>
<path d="M49.7882 40.9052L45.9591 42.5338L46.4581 38.4156L49.7882 40.9052Z" stroke="#999999"/>
<path d="M151.788 43.8942L147.959 45.5228L148.458 41.4046L151.788 43.8942Z" stroke="#C6007E"/>
<path d="M99.7882 5.03753L95.9591 6.66612L96.4581 2.54795L99.7882 5.03753Z" stroke="#999999"/>
<path d="M65.5606 76.6359L70.5546 75.2237L69.2851 80.2387L65.5606 76.6359Z" stroke="#999999"/>
<path d="M127.5 38.8561C127.5 41.3294 125.487 43.3376 123 43.3376C120.513 43.3376 118.5 41.3294 118.5 38.8561C118.5 36.3827 120.513 34.3745 123 34.3745C125.487 34.3745 127.5 36.3827 127.5 38.8561Z" stroke="#999999"/>
<path d="M18.5 72.7309C18.5 74.654 16.9347 76.2161 15 76.2161C13.0653 76.2161 11.5 74.654 11.5 72.7309C11.5 70.8077 13.0653 69.2456 15 69.2456C16.9347 69.2456 18.5 70.8077 18.5 72.7309Z" stroke="#06038D"/>
<line y1="-0.5" x2="29.8105" y2="-0.5" transform="matrix(-0.977477 -0.211042 0.212537 -0.977153 152.773 58.0999)" stroke="#080661"/>
<line y1="-0.5" x2="27" y2="-0.5" transform="matrix(-0.998808 0.0488147 -0.0491759 -0.99879 44.0454 56.0215)" stroke="#080661"/>
<line y1="-0.5" x2="9.5045" y2="-0.5" transform="matrix(-0.389138 -0.92118 0.922204 -0.386703 74 9.96338)" stroke="#3434E0"/>
<path d="M15.6338 19.5398L21.6447 16.3394L24.8569 22.3281L30.8678 19.1277L34.0801 25.1164L40.091 21.916" stroke="#080661"/>
<path d="M140.888 32.2214L145.026 24.9947L152.279 29.1169L156.417 21.8901L163.67 26.0123L167.808 18.7856" stroke="#3434E0"/>
<line y1="-0.5" x2="24.1763" y2="-0.5" transform="matrix(-0.849861 -0.527007 0.529821 -0.84811 60.1211 17.9343)" stroke="#C6007E"/>
<path d="M35.064 80.5815L36.9561 74.7788L42.7803 76.664L44.6724 70.8612L50.4966 72.7464L52.3888 66.9437" stroke="#C6007E"/>
<path d="M6.77183 31.6937L8.64429 38.4615M6.77183 31.6937L2.30939 36.6265L3.42166 43.1741M6.77183 31.6937L20.5539 41.9113M8.64429 38.4615L3.42166 43.1741M8.64429 38.4615L20.5539 41.9113M3.42166 43.1741L20.5539 41.9113" stroke="#C6007E"/>
<path d="M135.433 77.1669L134.342 71.3358M135.433 77.1669L139.544 73.3318L139.078 67.7401M135.433 77.1669L124.563 67.5832M134.342 71.3358L139.078 67.7401M134.342 71.3358L124.563 67.5832M139.078 67.7401L124.563 67.5832" stroke="#3434E0"/>
<rect x="0.642173" y="0.298005" width="4.95226" height="4.93549" transform="matrix(0.939467 -0.342638 0.344878 0.938648 142.57 7.26004)" stroke="#06038D"/>
<rect x="0.642173" y="0.298005" width="3.48976" height="3.47711" transform="matrix(0.939467 -0.342638 0.344878 0.938648 103.57 70.0276)" stroke="#999999"/>
<rect x="0.697686" y="-0.122358" width="4.94014" height="4.94762" transform="matrix(0.575752 -0.817624 0.819619 0.572908 16.7024 6.04504)" stroke="#3434E0"/>
<defs>
<filter id="filter0_d_8067_9646" x="80.2065" y="38.8572" width="7" height="7.97412" filterUnits="userSpaceOnUse" color-interpolation-filters="sRGB">
<feFlood flood-opacity="0" result="BackgroundImageFix"/>
<feColorMatrix in="SourceAlpha" type="matrix" values="0 0 0 0 0 0 0 0 0 0 0 0 0 0 0 0 0 0 127 0" result="hardAlpha"/>
<feOffset dy="1"/>
<feColorMatrix type="matrix" values="0 0 0 0 0 0 0 0 0 0 0 0 0 0 0 0 0 0 0.25 0"/>
<feBlend mode="normal" in2="BackgroundImageFix" result="effect1_dropShadow_8067_9646"/>
<feBlend mode="normal" in="SourceGraphic" in2="effect1_dropShadow_8067_9646" result="shape"/>
</filter>
<filter id="filter1_d_8067_9646" x="91.2065" y="48.8203" width="7" height="7.97412" filterUnits="userSpaceOnUse" color-interpolation-filters="sRGB">
<feFlood flood-opacity="0" result="BackgroundImageFix"/>
<feColorMatrix in="SourceAlpha" type="matrix" values="0 0 0 0 0 0 0 0 0 0 0 0 0 0 0 0 0 0 127 0" result="hardAlpha"/>
<feOffset dy="1"/>
<feColorMatrix type="matrix" values="0 0 0 0 0 0 0 0 0 0 0 0 0 0 0 0 0 0 0.25 0"/>
<feBlend mode="normal" in2="BackgroundImageFix" result="effect1_dropShadow_8067_9646"/>
<feBlend mode="normal" in="SourceGraphic" in2="effect1_dropShadow_8067_9646" result="shape"/>
</filter>
<filter id="filter2_d_8067_9646" x="82.0884" y="39.47" width="14.3745" height="17.1331" filterUnits="userSpaceOnUse" color-interpolation-filters="sRGB">
<feFlood flood-opacity="0" result="BackgroundImageFix"/>
<feColorMatrix in="SourceAlpha" type="matrix" values="0 0 0 0 0 0 0 0 0 0 0 0 0 0 0 0 0 0 127 0" result="hardAlpha"/>
<feOffset dy="1"/>
<feColorMatrix type="matrix" values="0 0 0 0 0 0 0 0 0 0 0 0 0 0 0 0 0 0 0.25 0"/>
<feBlend mode="normal" in2="BackgroundImageFix" result="effect1_dropShadow_8067_9646"/>
<feBlend mode="normal" in="SourceGraphic" in2="effect1_dropShadow_8067_9646" result="shape"/>
</filter>
</defs>
</svg>
